<mxfile host="app.diagrams.net" modified="2021-11-10T21:10:52.784Z" agent="5.0 (Windows NT 10.0; Win64; x64) AppleWebKit/537.36 (KHTML, like Gecko) Chrome/95.0.4638.69 Safari/537.36" etag="UAbh7fFH9xRaS7lPDBiU" version="15.7.3" type="github">
  <diagram id="3v-MxLDwUCA0oDt9nRal" name="Page-1">
    <mxGraphModel dx="782" dy="411" grid="1" gridSize="10" guides="1" tooltips="1" connect="1" arrows="1" fold="1" page="1" pageScale="1" pageWidth="850" pageHeight="1100" math="0" shadow="0">
      <root>
        <mxCell id="0" />
        <mxCell id="1" parent="0" />
        <mxCell id="iPklJTfA2daygiLx-JZj-1" value="" style="whiteSpace=wrap;html=1;aspect=fixed;" vertex="1" parent="1">
          <mxGeometry x="200" y="20" width="380" height="380" as="geometry" />
        </mxCell>
        <mxCell id="iPklJTfA2daygiLx-JZj-2" value="" style="rounded=1;whiteSpace=wrap;html=1;" vertex="1" parent="1">
          <mxGeometry x="320" y="140" width="140" height="30" as="geometry" />
        </mxCell>
        <mxCell id="iPklJTfA2daygiLx-JZj-3" value="login" style="text;html=1;strokeColor=none;fillColor=none;align=center;verticalAlign=middle;whiteSpace=wrap;rounded=0;" vertex="1" parent="1">
          <mxGeometry x="250" y="140" width="60" height="30" as="geometry" />
        </mxCell>
        <mxCell id="iPklJTfA2daygiLx-JZj-4" value="" style="rounded=1;whiteSpace=wrap;html=1;" vertex="1" parent="1">
          <mxGeometry x="320" y="180" width="140" height="30" as="geometry" />
        </mxCell>
        <mxCell id="iPklJTfA2daygiLx-JZj-5" value="password&lt;br&gt;" style="text;html=1;strokeColor=none;fillColor=none;align=center;verticalAlign=middle;whiteSpace=wrap;rounded=0;" vertex="1" parent="1">
          <mxGeometry x="250" y="180" width="60" height="30" as="geometry" />
        </mxCell>
        <mxCell id="iPklJTfA2daygiLx-JZj-8" value="sing in&lt;br&gt;" style="text;html=1;strokeColor=none;fillColor=none;align=center;verticalAlign=middle;whiteSpace=wrap;rounded=0;" vertex="1" parent="1">
          <mxGeometry x="340" y="100" width="100" height="30" as="geometry" />
        </mxCell>
        <mxCell id="iPklJTfA2daygiLx-JZj-9" value="Submit" style="rounded=1;fillColor=#0057D8;align=center;strokeColor=none;html=1;fontColor=#ffffff;fontSize=12;sketch=0;" vertex="1" parent="1">
          <mxGeometry x="350" y="226" width="80" height="33" as="geometry" />
        </mxCell>
        <mxCell id="iPklJTfA2daygiLx-JZj-12" value="forgot password" style="rounded=1;html=1;shadow=0;dashed=0;whiteSpace=wrap;fontSize=10;fillColor=#B3B3B3;align=center;strokeColor=#E6E6E6;fontColor=#333333;strokeWidth=2;" vertex="1" parent="1">
          <mxGeometry x="334.5" y="280" width="105.5" height="16.88" as="geometry" />
        </mxCell>
      </root>
    </mxGraphModel>
  </diagram>
</mxfile>
